<?xml version="1.0" standalone="no"?>
<svg xmlns="http://www.w3.org/2000/svg" viewBox="0 0 163.408 29" width="163.408" height="29"><g fill="#dd2c00" color="#dd2c00" transform="translate(0, 0) scale(0.58)"><svg width="30.0" height="50.0" x="0.0" y="0.0" viewBox="0 0 30 50"><path fill="currentColor" fill-rule="nonzero" d="M.06.89v33.38h.02l14.83 14.84.09-.09.09.09 14.83-14.84h.02V.89H.06zm27.8 32.5L15 46.25 2.14 33.39v-7.17l12.77 12.77.09-.09.09.09 12.77-12.77v7.17zm0-10.11L15 36.13 2.14 23.28v-7.26L13.53 27.4 15 28.88l1.47-1.47 11.38-11.38v7.25h.01zM15 25.93l-3.24-3.24V2.97h6.48v19.72L15 25.93zM9.68 2.97V20.6l-7.53-7.53V2.97h7.53zm18.18 10.1l-7.53 7.53V2.97h7.53v10.1z"></path></svg></g><line x1="29.4" y1="1" x2="29.4" y2="28" stroke="#0288d1" stroke-linecap="round"></line><path fill="#0288d1" fill-rule="nonzero" d="M5.62 18.67Q2.52 18.67 1.26 15.86Q0 13.06 0 8.95L0 8.95Q0 6.74 0.58 4.70Q1.15 2.66 2.44 1.33Q3.72 0 5.69 0L5.69 0Q7.20 0 8.34 0.94Q9.48 1.87 10.09 3.37Q10.70 4.87 10.70 6.50L10.70 6.50L7.30 6.67Q7.30 5.59 6.94 4.21Q6.58 2.83 5.50 2.83L5.50 2.83Q4.37 2.83 3.94 4.63Q3.50 6.43 3.50 8.95L3.50 8.95Q3.50 12.07 3.98 13.96Q4.46 15.84 5.83 15.84L5.83 15.84Q6.79 15.84 7.20 14.70Q7.61 13.56 7.73 11.93L7.73 11.93L10.73 12.22Q10.73 13.94 10.15 15.42Q9.58 16.90 8.42 17.78Q7.27 18.67 5.62 18.67L5.62 18.67ZM17.33 18.65Q14.93 18.65 13.66 16.74Q12.38 14.83 12.38 11.66L12.38 11.66Q12.38 8.45 13.68 6.55Q14.98 4.66 17.45 4.66L17.45 4.66Q19.80 4.66 21.05 6.55Q22.30 8.45 22.30 11.66L22.30 11.66Q22.30 11.86 22.22 11.94Q22.15 12.02 22.15 12.05L22.15 12.05L15.74 12.05Q15.74 13.61 16.15 14.89Q16.56 16.18 17.40 16.18L17.40 16.18Q18.34 16.18 18.79 15.10Q19.25 14.02 19.27 13.97L19.27 13.97L21.82 14.93Q21.31 16.66 20.21 17.65Q19.10 18.65 17.33 18.65L17.33 18.65ZM15.74 10.10L18.98 10.10Q18.98 8.66 18.60 7.82Q18.22 6.98 17.40 6.98L17.40 6.98Q16.99 6.98 16.61 7.39Q16.22 7.80 15.98 8.52Q15.74 9.24 15.74 10.10L15.74 10.10ZM24.34 18.48L24.34 5.11L27.70 4.82L27.70 6.55Q28.73 5.64 29.72 5.15Q30.72 4.66 31.56 4.66L31.56 4.66Q32.83 4.66 33.64 5.58Q34.44 6.50 34.44 8.06L34.44 8.06L34.44 18.19L31.08 18.48L31.08 9.34Q31.08 7.54 29.86 7.54L29.86 7.54Q29.45 7.54 28.96 7.78Q28.46 8.02 27.70 8.47L27.70 8.47L27.70 18.19L24.34 18.48ZM41.88 18.60Q40.25 18.60 39.12 17.77Q37.99 16.94 37.99 14.83L37.99 14.83L37.99 7.37L36.12 7.37L36.26 4.82L38.09 4.82L38.42 1.90L41.35 1.49L41.35 4.82L44.14 4.82L43.99 7.37L41.38 7.37L41.38 14.81Q41.38 15.53 41.74 15.84Q42.10 16.15 42.79 16.15L42.79 16.15Q43.18 16.15 44.09 16.01L44.09 16.01L44.09 18.34Q43.99 18.36 43.33 18.48Q42.67 18.60 41.88 18.60L41.88 18.60ZM45.91 18.48L45.91 5.11L49.27 4.82L49.27 7.01Q49.99 5.98 51.06 5.34Q52.13 4.70 53.78 4.70L53.78 4.70L53.78 7.99Q52.92 7.99 51.52 8.29Q50.11 8.59 49.27 9.34L49.27 9.34L49.27 18.19L45.91 18.48ZM57.82 18.65Q56.95 18.65 56.26 18.11Q55.56 17.57 55.18 16.64Q54.79 15.72 54.79 14.57L54.79 14.57Q54.79 11.95 56.58 10.88Q58.37 9.82 60.74 9.67L60.74 9.67Q60.74 8.38 60.58 7.75Q60.41 7.13 59.76 7.13L59.76 7.13Q59.21 7.13 58.92 7.56Q58.63 7.99 58.56 8.66L58.56 8.66L55.27 8.09Q55.51 6.24 56.78 5.45Q58.06 4.66 59.76 4.66L59.76 4.66Q61.94 4.66 63.04 5.81Q64.13 6.96 64.13 8.81L64.13 8.81L64.13 15.79Q64.13 16.92 64.49 18.19L64.49 18.19L61.20 18.48L60.82 16.82Q60.38 17.59 59.54 18.12Q58.70 18.65 57.82 18.65L57.82 18.65ZM59.38 16.25Q59.78 16.25 60.06 16.06Q60.34 15.86 60.74 15.43L60.74 15.43L60.74 11.69Q59.54 11.69 58.82 12.34Q58.10 12.98 58.10 14.35L58.10 14.35Q58.10 15.26 58.43 15.76Q58.75 16.25 59.38 16.25L59.38 16.25ZM70.30 18.19L66.94 18.48L66.94 0.77L70.30 0.34L70.30 18.19ZM81.05 18.34L77.90 18.34L81.70 0.55L86.71 0.34L90.60 18.19L86.76 18.34L86.11 14.47L81.82 14.47L81.05 18.34ZM83.81 2.98L82.46 11.59L85.46 11.59L83.81 2.98ZM95.23 18.65Q93.91 18.65 93.07 17.72Q92.23 16.80 92.23 15.24L92.23 15.24L92.23 5.11L95.59 4.82L95.59 13.87Q95.59 14.83 95.90 15.25Q96.22 15.67 96.86 15.67L96.86 15.67Q97.37 15.67 97.94 15.42Q98.52 15.17 98.98 14.62L98.98 14.62L98.98 5.11L102.36 4.82L102.36 18.19L98.98 18.48L98.98 16.75Q98.14 17.71 97.14 18.18Q96.14 18.65 95.23 18.65L95.23 18.65ZM109.87 18.60Q108.24 18.60 107.11 17.77Q105.98 16.94 105.98 14.83L105.98 14.83L105.98 7.37L104.11 7.37L104.26 4.82L106.08 4.82L106.42 1.90L109.34 1.49L109.34 4.82L112.13 4.82L111.98 7.37L109.37 7.37L109.37 14.81Q109.37 15.53 109.73 15.84Q110.09 16.15 110.78 16.15L110.78 16.15Q111.17 16.15 112.08 16.01L112.08 16.01L112.08 18.34Q111.98 18.36 111.32 18.48Q110.66 18.60 109.87 18.60L109.87 18.60ZM113.90 18.48L113.90 0.77L117.26 0.34L117.26 6.55Q119.33 4.66 121.13 4.66L121.13 4.66Q122.40 4.66 123.20 5.58Q124.01 6.50 124.01 8.06L124.01 8.06L124.01 18.19L120.65 18.48L120.65 9.29Q120.65 8.40 120.32 7.97Q120.00 7.54 119.47 7.54L119.47 7.54Q119.04 7.54 118.56 7.75Q118.08 7.97 117.26 8.45L117.26 8.45L117.26 18.19L113.90 18.48Z" transform="translate(39.4, 5.164)"></path></svg>